<svg version="1.1" id="Layer_1" xmlns="http://www.w3.org/2000/svg" xmlns:xlink="http://www.w3.org/1999/xlink" x="0px" y="0px"
	 width="100%" viewBox="0 0 865 865" enable-background="new 0 0 865 865" xml:space="preserve">
<path fill="#FFFFFF" opacity="0.000000" stroke="none" 
	d="
M866.000000,421.000000 
	C866.000000,569.254517 866.000000,717.509094 866.000000,866.000000 
	C744.643433,866.000000 623.286743,866.000000 501.518188,865.584595 
	C501.403809,863.716309 501.956329,862.264160 501.960327,860.810486 
	C502.016876,840.331848 502.010193,819.852905 501.989471,799.374084 
	C501.985138,795.082581 499.729584,792.994385 495.458862,793.000610 
	C486.301697,793.014038 477.144531,793.012024 467.519958,793.013794 
	C457.691711,793.028076 448.330811,793.044800 438.503326,793.050781 
	C427.677765,793.067444 417.318817,793.094788 406.495911,793.092285 
	C395.673523,793.101807 385.315033,793.141235 374.493713,793.135132 
	C364.341156,793.140442 354.651428,793.191345 344.499756,793.179810 
	C335.677277,793.174377 327.316803,793.231323 318.495178,793.223755 
	C308.009949,793.215698 297.985840,793.272217 287.502014,793.246765 
	C278.351379,793.231079 269.660522,793.297485 260.510406,793.274048 
	C251.691956,793.252502 243.332748,793.320679 234.514664,793.295105 
	C226.023697,793.269043 217.991608,793.336670 209.502686,793.313599 
	C200.349854,793.288086 191.653870,793.353210 182.501465,793.326172 
	C165.950256,793.202148 149.855392,793.123596 133.760742,793.152588 
	C119.830803,793.177673 105.901093,793.324768 91.514435,793.322998 
	C81.973488,793.228027 72.889374,793.228027 63.230141,793.228027 
	C63.230141,790.612610 63.233658,788.663818 63.229610,786.714966 
	C63.173721,759.811462 63.116791,732.907959 63.126076,705.539062 
	C63.208355,695.277710 63.250957,685.481628 63.235958,675.685730 
	C63.194771,648.792236 63.129398,621.898804 63.143463,594.540405 
	C63.228828,402.644531 63.245197,211.213562 63.243198,19.782602 
	C63.243183,18.364286 62.991886,16.945974 62.808083,15.000000 
	C41.923336,15.000000 21.461668,15.000000 1.000000,15.000000 
	C1.000000,10.334883 1.000000,5.669765 1.000000,1.003485 
	C289.236084,1.002324 577.472168,1.002324 866.000000,1.002324 
	C866.000000,139.689850 866.000000,278.379913 865.677734,417.401123 
	C863.255920,413.757568 861.096375,409.813354 859.066101,405.803680 
	C831.522888,351.407379 804.024963,296.988159 776.452393,242.606766 
	C767.369690,224.692856 758.105591,206.870911 748.931396,188.646790 
	C746.063354,182.508820 743.242371,176.703339 740.303040,170.958359 
	C731.599976,153.947983 722.850220,136.961472 714.071411,119.605667 
	C699.674927,91.499245 685.325684,63.752785 671.037415,35.629375 
	C667.702454,28.507904 664.306458,21.763378 660.917725,14.656410 
	C659.350159,11.079247 657.711243,7.893969 656.219299,4.641288 
	C654.805054,1.558205 653.161804,0.988123 650.609253,3.943954 
	C648.103699,5.640788 645.932617,7.264123 643.443481,8.948372 
	C641.382690,10.290973 639.640015,11.572659 637.578247,12.927235 
	C635.843018,14.015635 634.426819,15.031147 632.709595,16.162216 
	C630.912659,17.476181 629.416809,18.674587 627.589722,19.942286 
	C625.489563,21.323307 623.720520,22.635040 621.616821,23.996214 
	C619.515747,25.359150 617.749390,26.672644 615.666565,28.127773 
	C611.455933,30.360605 609.043823,32.788067 608.739868,38.001736 
	C608.319763,45.207027 611.767212,50.417530 615.042664,56.359581 
	C617.357422,60.839279 619.631897,64.959473 621.962646,69.440002 
	C623.348022,72.532997 624.677185,75.265671 626.050415,78.352661 
	C628.024292,82.182999 629.954163,85.659019 631.941040,89.485878 
	C633.599121,92.903770 635.200195,95.970825 636.874268,99.394707 
	C638.906677,103.507408 640.866089,107.263275 642.899902,111.376099 
	C645.288879,116.194260 647.603577,120.655464 649.974731,125.468872 
	C652.328918,130.222198 654.626770,134.623337 656.983643,139.381134 
	C660.362854,146.158936 663.682983,152.580048 667.053955,159.359406 
	C676.598938,178.540207 686.060913,197.379166 695.601196,216.178360 
	C700.327209,225.491089 705.197510,234.730637 710.050659,244.360107 
	C716.805176,258.018799 723.475769,271.338867 730.230591,284.616150 
	C734.726318,293.453217 739.342163,302.229126 743.957275,311.390472 
	C761.324219,346.033630 778.580566,380.348145 796.031311,414.563507 
	C798.030396,418.483124 798.285950,421.571411 796.239868,425.649353 
	C785.055481,447.940155 774.154480,470.373932 763.258850,492.808472 
	C757.675476,504.304779 752.306519,515.905151 746.553406,527.692261 
	C740.330933,539.992676 734.344727,552.034668 728.474792,564.133118 
	C722.536194,576.372925 716.712708,588.668640 710.580933,601.163147 
	C699.753662,622.976868 689.161255,644.556152 678.630493,666.165466 
	C675.949402,671.667297 673.463928,677.264526 670.630005,683.053345 
	C667.130249,690.144653 663.889038,697.000366 660.397949,704.074585 
	C658.037537,708.840149 655.926941,713.387146 653.561035,718.156067 
	C651.178040,722.914795 649.050476,727.451538 646.657349,732.198669 
	C644.273560,736.941101 642.155396,741.473206 639.758545,746.211792 
	C637.615906,750.578430 635.752014,754.738586 633.627502,759.122192 
	C631.218811,763.894165 629.070801,768.442627 626.658813,773.202087 
	C624.898743,776.915222 623.402588,780.417419 621.614258,784.100830 
	C619.536133,788.179993 617.750305,792.077881 615.693115,796.183350 
	C613.305908,800.668396 610.386536,804.745667 609.258301,809.269531 
	C607.474487,816.422363 607.776794,824.447144 617.134705,827.324951 
	C619.179749,828.770142 621.064453,829.922058 623.118347,831.360840 
	C625.166748,832.805603 627.046021,833.963379 629.104248,835.400574 
	C631.162354,836.826965 633.041626,837.973938 635.105042,839.394775 
	C637.149109,840.803040 639.009033,841.937500 641.060791,843.351196 
	C643.776367,845.197876 646.300110,846.765381 649.031128,848.591675 
	C650.838806,849.950256 652.439148,851.050110 654.683655,852.592712 
	C655.887939,849.705811 656.874634,847.340454 657.950562,844.628174 
	C660.314575,839.845642 662.589233,835.410034 664.997803,830.642517 
	C668.388733,823.536499 671.645691,816.762329 674.996948,809.650330 
	C676.343445,807.201782 677.742798,805.163452 678.824158,802.968506 
	C685.726013,788.959229 692.599060,774.935425 699.399536,760.876770 
	C704.821594,749.667908 710.127075,738.402710 715.687866,726.881836 
	C718.359192,721.646790 720.866211,716.711548 723.287781,711.734619 
	C732.487000,692.828064 741.658569,673.908020 750.997498,654.658447 
	C753.103821,650.518250 755.109985,646.740601 756.991821,642.901855 
	C763.158386,630.323120 769.275330,617.720154 775.419067,605.130188 
	C800.034119,554.687866 824.618408,504.230499 849.295532,453.818542 
	C854.691711,442.794861 860.422974,431.935181 866.000000,421.000000 
M274.143402,487.634827 
	C276.947876,481.831055 280.733795,476.290405 282.373627,470.174377 
	C287.382568,451.492615 282.802460,426.963440 262.996490,418.605377 
	C262.804657,418.524414 262.778595,418.050659 262.605560,417.565002 
	C269.424316,412.707611 274.016907,406.149841 276.559967,398.129242 
	C285.075867,371.271118 271.036652,346.262451 245.139343,342.389557 
	C241.206116,341.801300 237.166611,341.763184 233.175369,341.750732 
	C213.516220,341.689392 193.856750,341.717712 174.197403,341.731384 
	C172.620377,341.732452 171.043442,341.862701 169.539154,341.929688 
	C169.539154,349.634247 169.539154,356.734619 169.539154,364.313385 
	C175.038498,364.313385 180.295105,364.313385 185.593323,364.313385 
	C185.593323,403.346069 185.593323,441.892761 185.593323,480.956665 
	C179.999084,480.956665 174.751282,480.956665 169.576340,480.956665 
	C169.576340,488.573517 169.576340,495.667542 169.576340,502.629913 
	C195.654083,502.629913 221.447281,503.005157 247.220474,502.450653 
	C257.979004,502.219208 266.890411,496.694183 274.143402,487.634827 
M557.363525,339.869751 
	C543.078369,342.178131 530.914978,348.641541 520.729553,358.821381 
	C489.717834,389.816193 488.178619,447.924500 517.418579,481.971924 
	C545.021790,514.113525 591.807007,513.960876 619.252014,481.639771 
	C645.642334,450.560638 647.200684,398.667053 622.264160,366.421600 
	C606.117004,345.541626 584.692139,336.363983 557.363525,339.869751 
M413.665802,476.090576 
	C402.589661,470.843933 405.505829,460.296356 404.852112,451.366516 
	C396.874481,451.366516 389.473328,451.366516 381.798584,451.366516 
	C381.798584,457.036499 381.950562,462.357544 381.769440,467.667206 
	C381.270050,482.307617 388.194275,492.603333 400.762115,499.077789 
	C417.173187,507.532043 434.326385,508.420746 451.522827,501.700287 
	C465.320312,496.308167 474.014191,486.022614 477.629669,471.618652 
	C483.764832,447.176331 475.126526,427.659943 452.760101,416.083282 
	C444.790466,411.958282 436.274719,408.883942 428.330994,404.715057 
	C423.548950,402.205475 418.632904,399.183899 415.098755,395.215363 
	C406.380402,385.425415 410.329620,370.591644 422.262451,366.654114 
	C429.850769,364.150177 437.410797,364.769592 444.658875,368.074677 
	C449.458313,370.263214 452.201691,373.916107 451.925903,379.486053 
	C451.780914,382.413361 451.900238,385.353821 451.900238,388.361328 
	C459.952423,388.361328 467.362610,388.361328 475.105072,388.361328 
	C475.105072,381.910004 474.900208,375.757080 475.150787,369.622711 
	C475.579071,359.137695 470.821899,351.550293 462.004395,346.683228 
	C445.491302,337.568329 428.087769,336.334442 410.413330,342.779297 
	C397.595734,347.453156 389.336243,356.892700 386.492920,370.168671 
	C380.731598,397.069336 389.510803,415.022308 411.024780,425.873749 
	C418.895081,429.843506 427.143219,433.076111 434.938751,437.177612 
	C439.590240,439.624908 444.355164,442.481964 447.924957,446.241272 
	C458.188629,457.049835 453.423859,473.894562 439.185333,478.200897 
	C430.739136,480.755432 422.404510,480.109619 413.665802,476.090576 
M318.510315,341.724243 
	C313.587067,341.724243 308.663788,341.724243 303.801880,341.724243 
	C303.801880,349.588165 303.801880,356.715515 303.801880,364.356934 
	C309.267456,364.356934 314.518799,364.356934 319.753052,364.356934 
	C319.753052,403.398682 319.753052,441.920532 319.753052,480.821716 
	C314.286499,480.821716 309.173553,480.821716 303.922241,480.821716 
	C303.922241,488.426636 303.922241,495.645966 303.922241,502.922821 
	C323.518616,502.922821 342.771179,502.922821 362.095520,502.922821 
	C362.095520,495.470459 362.095520,488.273071 362.095520,480.710693 
	C356.596130,480.710693 351.482178,480.710693 346.102753,480.710693 
	C346.102753,441.809967 346.102753,403.285034 346.102753,364.263977 
	C351.557220,364.263977 356.806488,364.263977 362.182983,364.263977 
	C362.182983,356.538055 362.182983,349.311249 362.182983,341.724396 
	C347.754333,341.724396 333.630768,341.724396 318.510315,341.724243 
z"/>
<path fill="#48A8DD" opacity="1.000000" stroke="none" 
	d="
M1.000000,15.333333 
	C21.461668,15.000000 41.923336,15.000000 62.808083,15.000000 
	C62.991886,16.945974 63.243183,18.364286 63.243198,19.782602 
	C63.245197,211.213562 63.228828,402.644531 62.721512,594.489380 
	C60.113422,594.602112 57.998161,594.048279 55.880714,594.039795 
	C37.921181,593.967773 19.961248,593.995117 2.000460,593.525269 
	C1.999231,403.096283 2.002135,213.134659 1.957351,23.173044 
	C1.956866,21.115288 1.332908,19.057678 1.000000,17.000000 
	C1.000000,16.555555 1.000000,16.111111 1.000000,15.333333 
z"/>
<path fill="#47A9DF" opacity="1.000000" stroke="none" 
	d="
M746.840698,527.458557 
	C752.306519,515.905151 757.675476,504.304779 763.258850,492.808472 
	C774.154480,470.373932 785.055481,447.940155 796.239868,425.649353 
	C798.285950,421.571411 798.030396,418.483124 796.031311,414.563507 
	C778.580566,380.348145 761.324219,346.033630 744.337891,311.318115 
	C745.443787,308.155396 746.887817,305.425842 746.899292,302.690338 
	C747.050476,266.602661 746.972290,230.514053 747.081909,194.426086 
	C747.087341,192.617844 748.282959,190.813202 748.924438,189.006897 
	C758.105591,206.870911 767.369690,224.692856 776.452393,242.606766 
	C804.024963,296.988159 831.522888,351.407379 859.066101,405.803680 
	C861.096375,409.813354 863.255920,413.757568 865.677734,417.866119 
	C866.000000,418.750000 866.000000,419.500000 866.000000,420.625000 
	C860.422974,431.935181 854.691711,442.794861 849.295532,453.818542 
	C824.618408,504.230499 800.034119,554.687866 775.419067,605.130188 
	C769.275330,617.720154 763.158386,630.323120 756.991821,642.901855 
	C755.109985,646.740601 753.103821,650.518250 750.594299,654.640869 
	C749.356018,653.191101 748.091675,651.426270 748.086304,649.657593 
	C747.972290,612.200623 748.028809,574.743225 747.949646,537.286133 
	C747.942749,534.009521 747.227112,530.734375 746.840698,527.458557 
z"/>
<path fill="#5EA5D5" opacity="1.000000" stroke="none" 
	d="
M63.060112,706.004456 
	C63.116791,732.907959 63.173721,759.811462 63.229610,786.714966 
	C63.233658,788.663818 63.230141,790.612610 63.230141,793.228027 
	C72.889374,793.228027 81.973488,793.228027 91.501312,793.682007 
	C91.308762,794.748596 90.685257,795.876587 90.034180,795.892700 
	C84.528038,796.029175 85.159019,798.814880 86.304108,802.828247 
	C87.689133,807.682617 88.717407,812.783752 88.883278,817.811584 
	C89.255753,829.102112 88.973160,840.413452 89.015610,851.716064 
	C89.029152,855.321289 87.825027,859.338318 92.522224,861.446350 
	C93.373749,861.828491 93.523720,863.773865 93.532494,864.997559 
	C88.378281,865.331726 83.689140,865.665894 79.000000,866.000000 
	C74.975456,866.000000 70.950912,866.000000 66.280624,865.749268 
	C64.756592,865.665649 63.878296,865.832825 63.000000,866.000000 
	C60.629444,866.000000 58.258884,866.000000 55.151741,865.703186 
	C49.276768,865.604248 44.138386,865.802124 39.000000,866.000000 
	C37.611111,866.000000 36.222221,866.000000 34.123024,865.702637 
	C24.966835,865.270935 16.512045,864.851562 8.078588,865.115051 
	C3.411597,865.260803 1.849077,864.093750 1.886386,859.152161 
	C2.115780,828.768738 2.003664,798.382690 2.355265,767.961853 
	C4.334599,765.500977 7.873585,761.809692 7.254086,760.875305 
	C4.891786,757.312195 7.189147,755.441345 8.427477,752.818726 
	C10.211363,749.040771 14.326121,745.471680 10.263125,740.664978 
	C9.874319,740.205017 10.281169,738.663940 10.775142,737.933289 
	C13.790753,733.472839 16.938335,729.101624 20.113155,724.599609 
	C19.426527,724.550537 18.319290,724.471375 17.212053,724.392212 
	C16.994520,724.014099 16.776985,723.636047 16.559452,723.257996 
	C18.062553,721.993591 19.382961,720.344543 21.099360,719.529175 
	C30.091373,715.257751 39.096245,710.988220 48.277798,707.151550 
	C52.930229,705.207336 57.711544,700.638062 63.060112,706.004456 
z"/>
<path fill="#66A8D4" opacity="1.000000" stroke="none" 
	d="
M93.997559,864.997559 
	C93.523720,863.773865 93.373749,861.828491 92.522224,861.446350 
	C87.825027,859.338318 89.029152,855.321289 89.015610,851.716064 
	C88.973160,840.413452 89.255753,829.102112 88.883278,817.811584 
	C88.717407,812.783752 87.689133,807.682617 86.304108,802.828247 
	C85.159019,798.814880 84.528038,796.029175 90.034180,795.892700 
	C90.685257,795.876587 91.308762,794.748596 91.958160,793.776978 
	C105.901093,793.324768 119.830803,793.177673 133.760742,793.152588 
	C149.855392,793.123596 165.950256,793.202148 182.510635,793.721191 
	C182.650833,798.658203 182.068054,803.106628 182.044464,807.558044 
	C181.941193,827.038208 182.000000,846.519287 182.000000,866.000000 
	C164.312439,866.000000 146.624878,866.000000 128.174789,865.702942 
	C119.608170,865.603943 111.804085,865.801941 104.000000,866.000000 
	C103.555557,866.000000 103.111107,866.000000 102.072357,865.716675 
	C99.653358,865.291382 97.828667,865.149353 95.669586,865.005310 
	C94.889320,865.001404 94.443436,864.999451 93.997559,864.997559 
z"/>
<path fill="#D5E6F3" opacity="1.000000" stroke="none" 
	d="
M406.959839,793.122131 
	C417.318817,793.094788 427.677765,793.067444 438.513123,793.512573 
	C438.993042,812.590759 438.952423,831.196655 439.026764,849.802063 
	C439.049225,855.423462 439.433472,861.051453 436.000000,866.000000 
	C425.312439,866.000000 414.624878,866.000000 403.510223,865.629639 
	C405.843567,862.235535 406.183929,858.633606 406.063873,854.703613 
	C405.841034,847.410278 405.892517,840.103271 406.023376,832.805481 
	C406.260620,819.576355 406.639893,806.349792 406.959839,793.122131 
z"/>
<path fill="#F1F7FB" opacity="1.000000" stroke="none" 
	d="
M467.987366,793.016357 
	C477.144531,793.012024 486.301697,793.014038 495.458862,793.000610 
	C499.729584,792.994385 501.985138,795.082581 501.989471,799.374084 
	C502.010193,819.852905 502.016876,840.331848 501.960327,860.810486 
	C501.956329,862.264160 501.403809,863.716309 501.053162,865.584595 
	C490.645782,866.000000 480.291534,866.000000 469.520935,865.587524 
	C469.675873,859.774475 470.624115,854.382080 470.741669,848.971680 
	C471.003845,836.904480 471.175537,824.816467 470.738739,812.760376 
	C470.499451,806.154541 468.947449,799.596130 467.987366,793.016357 
z"/>
<path fill="#E3EEF7" opacity="1.000000" stroke="none" 
	d="
M467.519958,793.013794 
	C468.947449,799.596130 470.499451,806.154541 470.738739,812.760376 
	C471.175537,824.816467 471.003845,836.904480 470.741669,848.971680 
	C470.624115,854.382080 469.675873,859.774475 469.052277,865.587524 
	C458.312439,866.000000 447.624878,866.000000 436.468658,866.000000 
	C439.433472,861.051453 439.049225,855.423462 439.026764,849.802063 
	C438.952423,831.196655 438.993042,812.590759 438.979736,793.523315 
	C448.330811,793.044800 457.691711,793.028076 467.519958,793.013794 
z"/>
<path fill="#C7DEEE" opacity="1.000000" stroke="none" 
	d="
M406.495911,793.092285 
	C406.639893,806.349792 406.260620,819.576355 406.023376,832.805481 
	C405.892517,840.103271 405.841034,847.410278 406.063873,854.703613 
	C406.183929,858.633606 405.843567,862.235535 403.041565,865.629639 
	C392.979095,866.000000 382.958221,866.000000 372.509705,865.631226 
	C373.054718,862.350891 374.838501,859.447937 374.870026,856.526123 
	C375.097717,835.413147 374.971008,814.296265 374.956573,793.180664 
	C385.315033,793.141235 395.673523,793.101807 406.495911,793.092285 
z"/>
<path fill="#A1C8E3" opacity="1.000000" stroke="none" 
	d="
M287.961761,793.328796 
	C297.985840,793.272217 308.009949,793.215698 318.506531,793.623535 
	C318.652710,798.845398 318.082184,803.601074 318.044983,808.360840 
	C317.924561,823.761841 318.129120,839.166199 317.908600,854.565063 
	C317.853912,858.385010 316.666656,862.188782 316.000000,866.000000 
	C306.312439,866.000000 296.624878,866.000000 286.520905,865.584473 
	C286.403015,862.893738 286.925385,860.622498 286.965210,858.342834 
	C287.344147,836.672302 287.641174,815.000366 287.961761,793.328796 
z"/>
<path fill="#B9D6EA" opacity="1.000000" stroke="none" 
	d="
M374.493713,793.135132 
	C374.971008,814.296265 375.097717,835.413147 374.870026,856.526123 
	C374.838501,859.447937 373.054718,862.350891 372.041077,865.631226 
	C362.312439,866.000000 352.624878,866.000000 342.516327,865.612671 
	C342.730225,862.734619 343.867737,860.254700 343.921021,857.751648 
	C344.379059,836.250854 344.641113,814.745911 344.961670,793.242188 
	C354.651428,793.191345 364.341156,793.140442 374.493713,793.135132 
z"/>
<path fill="#94C1DF" opacity="1.000000" stroke="none" 
	d="
M287.502014,793.246765 
	C287.641174,815.000366 287.344147,836.672302 286.965210,858.342834 
	C286.925385,860.622498 286.403015,862.893738 286.052246,865.584473 
	C277.312439,866.000000 268.624878,866.000000 259.520935,865.584473 
	C259.403015,862.894897 259.925140,860.624878 259.965271,858.346252 
	C260.346741,836.686279 260.646454,815.024841 260.969666,793.363831 
	C269.660522,793.297485 278.351379,793.231079 287.502014,793.246765 
z"/>
<path fill="#73AED6" opacity="1.000000" stroke="none" 
	d="
M182.468658,866.000000 
	C182.000000,846.519287 181.941193,827.038208 182.044464,807.558044 
	C182.068054,803.106628 182.650833,798.658203 182.967072,793.813354 
	C191.653870,793.353210 200.349854,793.288086 209.497910,793.702515 
	C209.633331,796.800781 209.051086,799.418701 209.041931,802.038513 
	C208.967361,823.358826 209.000000,844.679443 209.000000,866.000000 
	C200.312439,866.000000 191.624863,866.000000 182.468658,866.000000 
z"/>
<path fill="#ADCFE7" opacity="1.000000" stroke="none" 
	d="
M344.499725,793.179810 
	C344.641113,814.745911 344.379059,836.250854 343.921021,857.751648 
	C343.867737,860.254700 342.730225,862.734619 342.047668,865.612671 
	C333.645782,866.000000 325.291534,866.000000 316.468658,866.000000 
	C316.666656,862.188782 317.853912,858.385010 317.908600,854.565063 
	C318.129120,839.166199 317.924561,823.761841 318.044983,808.360840 
	C318.082184,803.601074 318.652710,798.845398 318.967682,793.688110 
	C327.316803,793.231323 335.677277,793.174377 344.499725,793.179810 
z"/>
<path fill="#88BADD" opacity="1.000000" stroke="none" 
	d="
M260.510406,793.274048 
	C260.646454,815.024841 260.346741,836.686279 259.965271,858.346252 
	C259.925140,860.624878 259.403015,862.894897 259.052246,865.584473 
	C250.979095,866.000000 242.958191,866.000000 234.467804,865.531372 
	C234.323395,841.171387 234.648483,817.280090 234.973572,793.388794 
	C243.332748,793.320679 251.691956,793.252502 260.510406,793.274048 
z"/>
<path fill="#7DB4D9" opacity="1.000000" stroke="none" 
	d="
M234.514679,793.295105 
	C234.648483,817.280090 234.323395,841.171387 233.999161,865.531372 
	C225.979095,866.000000 217.958191,866.000000 209.468643,866.000000 
	C209.000000,844.679443 208.967361,823.358826 209.041931,802.038513 
	C209.051086,799.418701 209.633331,796.800781 209.954758,793.793152 
	C217.991608,793.336670 226.023697,793.269043 234.514679,793.295105 
z"/>
<path fill="#60B4E3" opacity="1.000000" stroke="none" 
	d="
M1.000000,17.467854 
	C1.332908,19.057678 1.956866,21.115288 1.957351,23.173044 
	C2.002135,213.134659 1.999231,403.096283 1.997795,593.955444 
	C1.989487,596.574280 1.982867,598.295715 1.732190,600.012573 
	C1.488132,600.008057 1.000000,600.000000 1.000000,600.000000 
	C1.000000,405.978577 1.000000,211.957138 1.000000,17.467854 
z"/>
<path fill="#6EAAD4" opacity="1.000000" stroke="none" 
	d="
M1.000000,600.468628 
	C1.000000,600.000000 1.488132,600.008057 1.736770,600.479248 
	C1.992000,656.632874 1.998592,712.315186 2.005184,767.997559 
	C2.003664,798.382690 2.115780,828.768738 1.886386,859.152161 
	C1.849077,864.093750 3.411597,865.260803 8.078588,865.115051 
	C16.512045,864.851562 24.966835,865.270935 33.706360,865.702637 
	C23.016115,866.000000 12.032230,866.000000 1.000000,866.000000 
	C1.000000,777.645752 1.000000,689.291565 1.000000,600.468628 
z"/>
<path fill="#73AED6" opacity="1.000000" stroke="none" 
	d="
M104.468636,866.000000 
	C111.804085,865.801941 119.608170,865.603943 127.706131,865.702942 
	C120.312424,866.000000 112.624847,866.000000 104.468636,866.000000 
z"/>
<path fill="#6EAAD4" opacity="1.000000" stroke="none" 
	d="
M93.532486,864.997559 
	C94.443436,864.999451 94.889320,865.001404 95.668182,865.253418 
	C96.001175,865.503540 96.000000,866.000000 96.000000,866.000000 
	C90.645073,866.000000 85.290138,866.000000 79.467606,866.000000 
	C83.689140,865.665894 88.378281,865.331726 93.532486,864.997559 
z"/>
<path fill="#6EAAD4" opacity="1.000000" stroke="none" 
	d="
M39.466862,866.000000 
	C44.138386,865.802124 49.276768,865.604248 54.707573,865.703186 
	C49.977909,866.000000 44.955814,866.000000 39.466862,866.000000 
z"/>
<path fill="#73AED6" opacity="1.000000" stroke="none" 
	d="
M96.428467,866.000000 
	C96.000000,866.000000 96.001175,865.503540 96.002571,865.255432 
	C97.828667,865.149353 99.653358,865.291382 101.739029,865.716675 
	C100.285645,866.000000 98.571281,866.000000 96.428467,866.000000 
z"/>
<path fill="#6EAAD4" opacity="1.000000" stroke="none" 
	d="
M63.375000,866.000000 
	C63.878296,865.832825 64.756592,865.665649 65.817444,865.749268 
	C65.250000,866.000000 64.500000,866.000000 63.375000,866.000000 
z"/>
<path fill="#FFFFFF" opacity="1.000000" stroke="none" 
	d="
M273.932800,487.922913 
	C266.890411,496.694183 257.979004,502.219208 247.220474,502.450653 
	C221.447281,503.005157 195.654083,502.629913 169.576340,502.629913 
	C169.576340,495.667542 169.576340,488.573517 169.576340,480.956665 
	C174.751282,480.956665 179.999084,480.956665 185.593323,480.956665 
	C185.593323,441.892761 185.593323,403.346069 185.593323,364.313385 
	C180.295105,364.313385 175.038498,364.313385 169.539154,364.313385 
	C169.539154,356.734619 169.539154,349.634247 169.539154,341.929688 
	C171.043442,341.862701 172.620377,341.732452 174.197403,341.731384 
	C193.856750,341.717712 213.516220,341.689392 233.175369,341.750732 
	C237.166611,341.763184 241.206116,341.801300 245.139343,342.389557 
	C271.036652,346.262451 285.075867,371.271118 276.559967,398.129242 
	C274.016907,406.149841 269.424316,412.707611 262.605560,417.565002 
	C262.778595,418.050659 262.804657,418.524414 262.996490,418.605377 
	C282.802460,426.963440 287.382568,451.492615 282.373627,470.174377 
	C280.733795,476.290405 276.947876,481.831055 273.932800,487.922913 
M211.538055,469.487732 
	C211.538055,472.583374 211.538055,475.679016 211.538055,479.132965 
	C220.748810,479.132965 229.359512,479.211273 237.968170,479.112274 
	C247.736130,478.999969 254.119995,474.931030 256.253204,465.451416 
	C257.696869,459.035950 257.774902,451.902069 256.618347,445.418671 
	C255.233841,437.657471 249.597900,432.292755 241.421051,431.771210 
	C231.698624,431.151123 221.906418,431.625275 211.537933,431.625275 
	C211.537933,444.003723 211.537933,456.248047 211.538055,469.487732 
M234.146484,407.711914 
	C243.851410,407.253082 248.796631,403.768066 251.427231,395.533752 
	C254.546387,385.770050 252.212418,373.805267 245.962021,369.164459 
	C244.031418,367.731049 241.491608,366.400848 239.184433,366.318390 
	C230.107910,365.993927 221.012955,366.185455 211.930878,366.185455 
	C211.930878,379.977020 211.930878,393.668030 211.930878,407.712677 
	C219.284775,407.712677 226.250916,407.712677 234.146484,407.711914 
z"/>
<path fill="#FFFFFF" opacity="1.000000" stroke="none" 
	d="
M557.800049,339.804810 
	C584.692139,336.363983 606.117004,345.541626 622.264160,366.421600 
	C647.200684,398.667053 645.642334,450.560638 619.252014,481.639771 
	C591.807007,513.960876 545.021790,514.113525 517.418579,481.971924 
	C488.178619,447.924500 489.717834,389.816193 520.729553,358.821381 
	C530.914978,348.641541 543.078369,342.178131 557.800049,339.804810 
M541.154480,468.357391 
	C559.384705,484.239777 581.477417,483.308563 597.605896,465.978027 
	C617.984314,444.080872 618.946716,403.467957 599.627930,380.641205 
	C582.436707,360.328217 554.889648,360.051819 537.368042,380.016449 
	C516.705505,403.559937 518.240479,444.655334 541.154480,468.357391 
z"/>
<path fill="#FFFFFF" opacity="1.000000" stroke="none" 
	d="
M414.003540,476.266052 
	C422.404510,480.109619 430.739136,480.755432 439.185333,478.200897 
	C453.423859,473.894562 458.188629,457.049835 447.924957,446.241272 
	C444.355164,442.481964 439.590240,439.624908 434.938751,437.177612 
	C427.143219,433.076111 418.895081,429.843506 411.024780,425.873749 
	C389.510803,415.022308 380.731598,397.069336 386.492920,370.168671 
	C389.336243,356.892700 397.595734,347.453156 410.413330,342.779297 
	C428.087769,336.334442 445.491302,337.568329 462.004395,346.683228 
	C470.821899,351.550293 475.579071,359.137695 475.150787,369.622711 
	C474.900208,375.757080 475.105072,381.910004 475.105072,388.361328 
	C467.362610,388.361328 459.952423,388.361328 451.900238,388.361328 
	C451.900238,385.353821 451.780914,382.413361 451.925903,379.486053 
	C452.201691,373.916107 449.458313,370.263214 444.658875,368.074677 
	C437.410797,364.769592 429.850769,364.150177 422.262451,366.654114 
	C410.329620,370.591644 406.380402,385.425415 415.098755,395.215363 
	C418.632904,399.183899 423.548950,402.205475 428.330994,404.715057 
	C436.274719,408.883942 444.790466,411.958282 452.760101,416.083282 
	C475.126526,427.659943 483.764832,447.176331 477.629669,471.618652 
	C474.014191,486.022614 465.320312,496.308167 451.522827,501.700287 
	C434.326385,508.420746 417.173187,507.532043 400.762115,499.077789 
	C388.194275,492.603333 381.270050,482.307617 381.769440,467.667206 
	C381.950562,462.357544 381.798584,457.036499 381.798584,451.366516 
	C389.473328,451.366516 396.874481,451.366516 404.852112,451.366516 
	C405.505829,460.296356 402.589661,470.843933 414.003540,476.266052 
z"/>
<path fill="#54A4D7" opacity="1.000000" stroke="none" 
	d="
M2.355265,767.961853 
	C1.998592,712.315186 1.992000,656.632874 1.980828,600.483765 
	C1.982867,598.295715 1.989487,596.574280 1.998771,594.422791 
	C19.961248,593.995117 37.921181,593.967773 55.880714,594.039795 
	C57.998161,594.048279 60.113422,594.602112 62.651646,594.954224 
	C63.129398,621.898804 63.194771,648.792236 63.235958,675.685730 
	C63.250957,685.481628 63.208355,695.277710 63.126076,705.539062 
	C57.711544,700.638062 52.930229,705.207336 48.277798,707.151550 
	C39.096245,710.988220 30.091373,715.257751 21.099360,719.529175 
	C19.382961,720.344543 18.062553,721.993591 16.559452,723.257996 
	C16.776985,723.636047 16.994520,724.014099 17.212053,724.392212 
	C18.319290,724.471375 19.426527,724.550537 20.113155,724.599609 
	C16.938335,729.101624 13.790753,733.472839 10.775142,737.933289 
	C10.281169,738.663940 9.874319,740.205017 10.263125,740.664978 
	C14.326121,745.471680 10.211363,749.040771 8.427477,752.818726 
	C7.189147,755.441345 4.891786,757.312195 7.254086,760.875305 
	C7.873585,761.809692 4.334599,765.500977 2.355265,767.961853 
z"/>
<path fill="#FFFFFF" opacity="1.000000" stroke="none" 
	d="
M319.008759,341.724304 
	C333.630768,341.724396 347.754333,341.724396 362.182983,341.724396 
	C362.182983,349.311249 362.182983,356.538055 362.182983,364.263977 
	C356.806488,364.263977 351.557220,364.263977 346.102753,364.263977 
	C346.102753,403.285034 346.102753,441.809967 346.102753,480.710693 
	C351.482178,480.710693 356.596130,480.710693 362.095520,480.710693 
	C362.095520,488.273071 362.095520,495.470459 362.095520,502.922821 
	C342.771179,502.922821 323.518616,502.922821 303.922241,502.922821 
	C303.922241,495.645966 303.922241,488.426636 303.922241,480.821716 
	C309.173553,480.821716 314.286499,480.821716 319.753052,480.821716 
	C319.753052,441.920532 319.753052,403.398682 319.753052,364.356934 
	C314.518799,364.356934 309.267456,364.356934 303.801880,364.356934 
	C303.801880,356.715515 303.801880,349.588165 303.801880,341.724243 
	C308.663788,341.724243 313.587067,341.724243 319.008759,341.724304 
z"/>
<path fill="#5BA3D3" opacity="1.000000" stroke="none" 
	d="
M715.484314,727.162598 
	C710.127075,738.402710 704.821594,749.667908 699.399536,760.876770 
	C692.599060,774.935425 685.726013,788.959229 678.824158,802.968506 
	C677.742798,805.163452 676.343445,807.201782 674.612305,809.593750 
	C673.422302,807.873840 672.097290,805.874817 672.090820,803.871460 
	C671.967712,765.778320 672.018860,727.684631 671.952454,689.591187 
	C671.948547,687.332825 671.259033,685.075623 670.888550,682.817871 
	C673.463928,677.264526 675.949402,671.667297 678.630493,666.165466 
	C689.161255,644.556152 699.753662,622.976868 710.968018,601.242981 
	C712.408630,604.174622 713.881348,607.246399 713.896240,610.325317 
	C714.061035,644.472717 714.024414,678.621216 713.962708,712.769287 
	C713.956482,716.226868 713.185608,719.689575 713.269409,723.137695 
	C713.302368,724.496460 714.705200,725.821960 715.484314,727.162598 
z"/>
<path fill="#5CA3D3" opacity="1.000000" stroke="none" 
	d="
M670.976440,36.006332 
	C685.325684,63.752785 699.674927,91.499245 713.664795,119.696213 
	C712.870239,121.957306 712.058960,123.767143 712.055420,125.578568 
	C711.981750,162.996628 712.031555,200.414932 711.914734,237.832764 
	C711.908325,239.891556 710.668335,241.946518 710.002502,244.003265 
	C705.197510,234.730637 700.327209,225.491089 695.601196,216.178360 
	C686.060913,197.379166 676.598938,178.540207 667.399841,159.163757 
	C668.129944,156.586761 668.940186,154.564423 668.944336,152.540436 
	C669.020508,115.485451 668.972534,78.430183 669.084045,41.375393 
	C669.089478,39.583832 670.317688,37.795944 670.976440,36.006332 
z"/>
<path fill="#4CA4D9" opacity="1.000000" stroke="none" 
	d="
M715.687866,726.881836 
	C714.705200,725.821960 713.302368,724.496460 713.269409,723.137695 
	C713.185608,719.689575 713.956482,716.226868 713.962708,712.769287 
	C714.024414,678.621216 714.061035,644.472717 713.896240,610.325317 
	C713.881348,607.246399 712.408630,604.174622 711.225830,601.019653 
	C716.712708,588.668640 722.536194,576.372925 728.474792,564.133118 
	C734.344727,552.034668 740.330933,539.992676 746.553467,527.692261 
	C747.227112,530.734375 747.942749,534.009521 747.949646,537.286133 
	C748.028809,574.743225 747.972290,612.200623 748.086304,649.657593 
	C748.091675,651.426270 749.356018,653.191101 750.437256,654.975342 
	C741.658569,673.908020 732.487000,692.828064 723.287781,711.734619 
	C720.866211,716.711548 718.359192,721.646790 715.687866,726.881836 
z"/>
<path fill="#4CA4D9" opacity="1.000000" stroke="none" 
	d="
M710.050659,244.360077 
	C710.668335,241.946518 711.908325,239.891556 711.914734,237.832764 
	C712.031555,200.414932 711.981750,162.996628 712.055420,125.578568 
	C712.058960,123.767143 712.870239,121.957306 713.712036,120.056183 
	C722.850220,136.961472 731.599976,153.947983 740.303040,170.958359 
	C743.242371,176.703339 746.063354,182.508820 748.931396,188.646790 
	C748.282959,190.813202 747.087341,192.617844 747.081909,194.426086 
	C746.972290,230.514053 747.050476,266.602661 746.899292,302.690338 
	C746.887817,305.425842 745.443787,308.155396 744.284973,310.960052 
	C739.342163,302.229126 734.726318,293.453217 730.230591,284.616150 
	C723.475769,271.338867 716.805176,258.018799 710.050659,244.360077 
z"/>
<path fill="#6EAAD4" opacity="1.000000" stroke="none" 
	d="
M671.037476,35.629387 
	C670.317688,37.795944 669.089478,39.583832 669.084045,41.375393 
	C668.972534,78.430183 669.020508,115.485451 668.944336,152.540436 
	C668.940186,154.564423 668.129944,156.586761 667.348999,158.805527 
	C663.682983,152.580048 660.362854,146.158936 657.339355,139.190170 
	C658.090698,136.629395 658.937561,134.617081 658.941833,132.602997 
	C659.021118,95.214615 658.973389,57.825951 659.081177,20.437717 
	C659.086365,18.629686 660.273682,16.825064 660.910522,15.018853 
	C664.306458,21.763378 667.702454,28.507904 671.037476,35.629387 
z"/>
<path fill="#66A8D4" opacity="1.000000" stroke="none" 
	d="
M670.630005,683.053345 
	C671.259033,685.075623 671.948547,687.332825 671.952454,689.591187 
	C672.018860,727.684631 671.967712,765.778320 672.090820,803.871460 
	C672.097290,805.874817 673.422302,807.873840 674.518066,809.931519 
	C671.645691,816.762329 668.388733,823.536499 664.614990,830.544556 
	C663.732117,828.926636 663.049683,827.075317 663.046631,825.222900 
	C662.984558,787.154053 663.042297,749.085022 662.899231,711.016663 
	C662.890259,708.627014 661.431885,706.242798 660.647827,703.856079 
	C663.889038,697.000366 667.130249,690.144653 670.630005,683.053345 
z"/>
<path fill="#7DB4D9" opacity="1.000000" stroke="none" 
	d="
M660.917725,14.656410 
	C660.273682,16.825064 659.086365,18.629686 659.081177,20.437717 
	C658.973389,57.825951 659.021118,95.214615 658.941833,132.602997 
	C658.937561,134.617081 658.090698,136.629395 657.280273,138.833496 
	C654.626770,134.623337 652.328918,130.222198 650.156372,125.077820 
	C650.521851,122.882317 650.970947,121.430161 650.971680,119.977783 
	C650.990540,81.275352 650.963196,42.572903 650.943665,3.870456 
	C653.161804,0.988123 654.805054,1.558205 656.219299,4.641288 
	C657.711243,7.893969 659.350159,11.079247 660.917725,14.656410 
z"/>
<path fill="#73AED6" opacity="1.000000" stroke="none" 
	d="
M660.397949,704.074585 
	C661.431885,706.242798 662.890259,708.627014 662.899231,711.016663 
	C663.042297,749.085022 662.984558,787.154053 663.046631,825.222900 
	C663.049683,827.075317 663.732117,828.926636 664.481079,830.876465 
	C662.589233,835.410034 660.314575,839.845642 657.568115,844.530273 
	C656.731750,842.925781 656.051880,841.072937 656.048889,839.218994 
	C655.987244,800.805908 656.035461,762.392639 655.909363,723.979919 
	C655.902710,721.962341 654.544983,719.949280 653.816284,717.934082 
	C655.926941,713.387146 658.037537,708.840149 660.397949,704.074585 
z"/>
<path fill="#7DB4D9" opacity="1.000000" stroke="none" 
	d="
M653.560974,718.156067 
	C654.544983,719.949280 655.902710,721.962341 655.909363,723.979919 
	C656.035461,762.392639 655.987244,800.805908 656.048889,839.218994 
	C656.051880,841.072937 656.731750,842.925781 657.478882,844.877136 
	C656.874634,847.340454 655.887939,849.705811 654.683655,852.592712 
	C652.439148,851.050110 650.838806,849.950256 649.089294,848.093689 
	C648.960876,810.316467 649.004883,773.295837 648.914490,736.275635 
	C648.910950,734.844910 647.616028,733.417297 646.922852,731.988281 
	C649.050476,727.451538 651.178040,722.914795 653.560974,718.156067 
z"/>
<path fill="#92BFDE" opacity="1.000000" stroke="none" 
	d="
M646.657288,732.198669 
	C647.616028,733.417297 648.910950,734.844910 648.914490,736.275635 
	C649.004883,773.295837 648.960876,810.316467 648.881958,847.834961 
	C646.300110,846.765381 643.776367,845.197876 641.383118,843.064697 
	C641.661499,842.029968 641.938293,841.561157 641.938843,841.092041 
	C641.973511,810.524597 642.006775,779.957153 641.917175,749.390015 
	C641.913879,748.259949 640.691467,747.133423 640.037231,746.005249 
	C642.155396,741.473206 644.273560,736.941101 646.657288,732.198669 
z"/>
<path fill="#88BADD" opacity="1.000000" stroke="none" 
	d="
M650.609253,3.943954 
	C650.963196,42.572903 650.990540,81.275352 650.971680,119.977783 
	C650.970947,121.430161 650.521851,122.882317 650.099976,124.725624 
	C647.603577,120.655464 645.288879,116.194260 643.314819,111.294861 
	C644.102783,109.217865 644.936218,107.580032 644.940369,105.940094 
	C645.018188,75.277428 645.017151,44.614460 644.944763,13.951773 
	C644.940796,12.262755 644.173523,10.575540 643.761597,8.887472 
	C645.932617,7.264123 648.103699,5.640788 650.609253,3.943954 
z"/>
<path fill="#A1C8E3" opacity="1.000000" stroke="none" 
	d="
M639.758545,746.211792 
	C640.691467,747.133423 641.913879,748.259949 641.917175,749.390015 
	C642.006775,779.957153 641.973511,810.524597 641.938843,841.092041 
	C641.938293,841.561157 641.661499,842.029968 641.191284,842.785461 
	C639.009033,841.937500 637.149109,840.803040 635.131958,838.914429 
	C634.982300,813.665466 635.014832,789.170715 634.949524,764.676208 
	C634.944397,762.749451 634.257935,760.824463 633.888123,758.898682 
	C635.752014,754.738586 637.615906,750.578430 639.758545,746.211792 
z"/>
<path fill="#A1C8E3" opacity="1.000000" stroke="none" 
	d="
M643.443481,8.948385 
	C644.173523,10.575540 644.940796,12.262755 644.944763,13.951773 
	C645.017151,44.614460 645.018188,75.277428 644.940369,105.940094 
	C644.936218,107.580032 644.102783,109.217865 643.240479,110.937912 
	C640.866089,107.263275 638.906677,103.507408 637.291870,99.308533 
	C638.089294,97.233627 638.931396,95.603027 638.936829,93.969650 
	C639.020447,68.856674 639.019165,43.743275 638.947754,18.630226 
	C638.942261,16.703953 638.263306,14.779596 637.897339,12.854347 
	C639.640015,11.572659 641.382690,10.290973 643.443481,8.948385 
z"/>
<path fill="#ADCFE7" opacity="1.000000" stroke="none" 
	d="
M637.578247,12.927237 
	C638.263306,14.779596 638.942261,16.703953 638.947754,18.630226 
	C639.019165,43.743275 639.020447,68.856674 638.936829,93.969650 
	C638.931396,95.603027 638.089294,97.233627 637.218872,98.951706 
	C635.200195,95.970825 633.599121,92.903770 632.130554,89.093399 
	C632.507874,86.396111 632.960815,84.442657 632.965637,82.488098 
	C633.020264,60.341049 633.006287,38.193832 633.010620,16.046661 
	C634.426819,15.031147 635.843018,14.015635 637.578247,12.927237 
z"/>
<path fill="#B9D6EA" opacity="1.000000" stroke="none" 
	d="
M633.627502,759.122192 
	C634.257935,760.824463 634.944397,762.749451 634.949524,764.676208 
	C635.014832,789.170715 634.982300,813.665466 634.947754,838.640503 
	C633.041626,837.973938 631.162354,836.826965 629.128662,834.919617 
	C628.981201,815.370422 629.038452,796.581116 628.905090,777.793213 
	C628.893738,776.187866 627.613525,774.591614 626.922729,772.991089 
	C629.070801,768.442627 631.218811,763.894165 633.627502,759.122192 
z"/>
<path fill="#C7DEEE" opacity="1.000000" stroke="none" 
	d="
M626.658813,773.202087 
	C627.613525,774.591614 628.893738,776.187866 628.905090,777.793213 
	C629.038452,796.581116 628.981201,815.370422 628.949768,834.640259 
	C627.046021,833.963379 625.166748,832.805603 623.135498,830.884399 
	C622.988159,816.645203 623.036194,803.169128 622.949036,789.693909 
	C622.936523,787.766968 622.270203,785.844238 621.906494,783.919556 
	C623.402588,780.417419 624.898743,776.915222 626.658813,773.202087 
z"/>
<path fill="#B9D6EA" opacity="1.000000" stroke="none" 
	d="
M632.709595,16.162218 
	C633.006287,38.193832 633.020264,60.341049 632.965637,82.488098 
	C632.960815,84.442657 632.507874,86.396111 632.073486,88.742554 
	C629.954163,85.659019 628.024292,82.182999 626.395325,78.156631 
	C627.129944,76.086456 627.935486,74.567932 627.940918,73.046570 
	C628.003967,55.322289 627.946533,37.597584 627.920898,19.872993 
	C629.416809,18.674587 630.912659,17.476181 632.709595,16.162218 
z"/>
<path fill="#C7DEEE" opacity="1.000000" stroke="none" 
	d="
M627.589783,19.942284 
	C627.946533,37.597584 628.003967,55.322289 627.940918,73.046570 
	C627.935486,74.567932 627.129944,76.086456 626.351257,77.802322 
	C624.677185,75.265671 623.348022,72.532997 622.150757,69.053177 
	C622.382080,53.969551 622.487366,39.633102 622.554321,25.296474 
	C622.556458,24.847528 622.161377,24.396727 621.951477,23.946781 
	C623.720520,22.635040 625.489563,21.323307 627.589783,19.942284 
z"/>
<path fill="#D5E6F3" opacity="1.000000" stroke="none" 
	d="
M621.614258,784.100830 
	C622.270203,785.844238 622.936523,787.766968 622.949036,789.693909 
	C623.036194,803.169128 622.988159,816.645203 622.966309,830.597534 
	C621.064453,829.922058 619.179749,828.770142 617.143799,826.852844 
	C616.995117,819.959351 617.121643,813.827820 616.955322,807.704285 
	C616.848877,803.788696 616.309631,799.884888 615.964417,795.975769 
	C617.750305,792.077881 619.536133,788.179993 621.614258,784.100830 
z"/>
<path fill="#D5E6F3" opacity="1.000000" stroke="none" 
	d="
M621.616821,23.996223 
	C622.161377,24.396727 622.556458,24.847528 622.554321,25.296474 
	C622.487366,39.633102 622.382080,53.969551 622.094482,68.692856 
	C619.631897,64.959473 617.357422,60.839279 615.439087,56.268784 
	C615.857788,46.541042 615.920410,37.263596 615.982971,27.986145 
	C617.749390,26.672644 619.515747,25.359150 621.616821,23.996223 
z"/>
<path fill="#E3EEF7" opacity="1.000000" stroke="none" 
	d="
M615.693115,796.183350 
	C616.309631,799.884888 616.848877,803.788696 616.955322,807.704285 
	C617.121643,813.827820 616.995117,819.959351 616.983521,826.559570 
	C607.776794,824.447144 607.474487,816.422363 609.258301,809.269531 
	C610.386536,804.745667 613.305908,800.668396 615.693115,796.183350 
z"/>
<path fill="#E3EEF7" opacity="1.000000" stroke="none" 
	d="
M615.666565,28.127779 
	C615.920410,37.263596 615.857788,46.541042 615.398804,55.909279 
	C611.767212,50.417530 608.319763,45.207027 608.739868,38.001736 
	C609.043823,32.788067 611.455933,30.360605 615.666565,28.127779 
z"/>
<path fill="#FCFCFC" opacity="0.000000" stroke="none" 
	d="
M211.537994,468.990051 
	C211.537933,456.248047 211.537933,444.003723 211.537933,431.625275 
	C221.906418,431.625275 231.698624,431.151123 241.421051,431.771210 
	C249.597900,432.292755 255.233841,437.657471 256.618347,445.418671 
	C257.774902,451.902069 257.696869,459.035950 256.253204,465.451416 
	C254.119995,474.931030 247.736130,478.999969 237.968170,479.112274 
	C229.359512,479.211273 220.748810,479.132965 211.538055,479.132965 
	C211.538055,475.679016 211.538055,472.583374 211.537994,468.990051 
z"/>
<path fill="#FCFCFC" opacity="0.000000" stroke="none" 
	d="
M233.681763,407.712280 
	C226.250916,407.712677 219.284775,407.712677 211.930878,407.712677 
	C211.930878,393.668030 211.930878,379.977020 211.930878,366.185455 
	C221.012955,366.185455 230.107910,365.993927 239.184433,366.318390 
	C241.491608,366.400848 244.031418,367.731049 245.962021,369.164459 
	C252.212418,373.805267 254.546387,385.770050 251.427231,395.533752 
	C248.796631,403.768066 243.851410,407.253082 233.681763,407.712280 
z"/>
<path fill="#FDFDFD" opacity="0.000000" stroke="none" 
	d="
M540.901672,468.105347 
	C518.240479,444.655334 516.705505,403.559937 537.368042,380.016449 
	C554.889648,360.051819 582.436707,360.328217 599.627930,380.641205 
	C618.946716,403.467957 617.984314,444.080872 597.605896,465.978027 
	C581.477417,483.308563 559.384705,484.239777 540.901672,468.105347 
z"/>
</svg>